<svg viewBox="0 0 16 16" xmlns="http://www.w3.org/2000/svg" xmlns:xlink="http://www.w3.org/1999/xlink"><defs><path d="M2.5 3.066V0H9a5 5 0 0 1 5 5v5h-1.375v2H4.75A4.75 4.75 0 0 1 2.5 3.066z" id="a"/><linearGradient x1="50%" y1="0%" x2="50%" y2="100%" id="b"><stop stop-color="#FFF" stop-opacity=".15" offset="0%"/><stop stop-color="#FFF" stop-opacity="0" offset="100%"/></linearGradient></defs><g fill="none" fill-rule="evenodd"><path d="M1.625 4.5h11.25c.345 0 .625.28.625.625V14H1.625A.625.625 0 0 1 1 13.375v-8.25c0-.345.28-.625.625-.625z" fill="#E3E3E3"/><path d="M3.5 2H13c.345 0 .625.28.625.625V14L3.5 12V2z" fill="#514896"/><path d="M5 2h9.375c.345 0 .625.28.625.625V12H5V2zM1.625 4.5H2V14h-.375A.625.625 0 0 1 1 13.375v-8.25c0-.345.28-.625.625-.625z" fill="#8577ED"/><path d="M3.5 2h2v10h-2V2zM7 3.75h6.5v.5H7v-.5zm0 1.5h6.5v.5H7v-.5zm0 1.5h6.5v.5H7v-.5zm0 1.5h6.5v.5H7v-.5zm0 1.5h4.136v.5H7v-.5z" fill="#C6BFFF"/><g transform="translate(1 2)"><mask id="c" fill="#fff"><use xlink:href="#a"/></mask><path fill="url(#b)" mask="url(#c)" d="M-.875-2.25h16v16h-16z"/></g></g></svg>